<svg width="15" height="15" viewBox="0 0 15 15" fill="none" xmlns="http://www.w3.org/2000/svg">
<path d="M14 7.33366H12.3467C12.0553 7.33304 11.7718 7.42786 11.5394 7.60364C11.3071 7.77941 11.1387 8.02646 11.06 8.30699L9.49335 13.8803C9.48326 13.9149 9.4622 13.9454 9.43335 13.967C9.4045 13.9886 9.36942 14.0003 9.33335 14.0003C9.29729 14.0003 9.2622 13.9886 9.23335 13.967C9.2045 13.9454 9.18345 13.9149 9.17335 13.8803L5.49335 0.786992C5.48326 0.752373 5.4622 0.721963 5.43335 0.700325C5.4045 0.678688 5.36942 0.666992 5.33335 0.666992C5.29729 0.666992 5.2622 0.678688 5.23335 0.700325C5.2045 0.721963 5.18345 0.752373 5.17335 0.786992L3.60669 6.36033C3.52833 6.63976 3.36094 6.886 3.12993 7.06167C2.89892 7.23733 2.6169 7.33283 2.32669 7.33366H0.666687" stroke="#364153" stroke-width="1.33333" stroke-linecap="round" stroke-linejoin="round"/>
</svg>
