<svg width="16" height="16" viewBox="0 0 16 16" fill="none" xmlns="http://www.w3.org/2000/svg">
<path d="M9.99372 13.9914V8.66137C9.99372 8.48467 9.92352 8.3152 9.79858 8.19026C9.67363 8.06531 9.50417 7.99512 9.32747 7.99512H6.66247C6.48577 7.99512 6.3163 8.06531 6.19136 8.19026C6.06641 8.3152 5.99622 8.48467 5.99622 8.66137V13.9914" stroke="black" stroke-width="1.3325" stroke-linecap="round" stroke-linejoin="round"/>
<path d="M1.99878 6.66266C1.99873 6.46883 2.04098 6.27732 2.12256 6.10149C2.20415 5.92566 2.32311 5.76975 2.47115 5.64463L7.1349 1.6478C7.37541 1.44453 7.68013 1.33301 7.99503 1.33301C8.30993 1.33301 8.61465 1.44453 8.85516 1.6478L13.5189 5.64463C13.667 5.76975 13.7859 5.92566 13.8675 6.10149C13.9491 6.27732 13.9913 6.46883 13.9913 6.66266V12.6589C13.9913 13.0123 13.8509 13.3512 13.601 13.6011C13.3511 13.851 13.0122 13.9914 12.6588 13.9914H3.33128C2.97788 13.9914 2.63895 13.851 2.38906 13.6011C2.13917 13.3512 1.99878 13.0123 1.99878 12.6589V6.66266Z" stroke="black" stroke-width="1.3325" stroke-linecap="round" stroke-linejoin="round"/>
</svg>
