<svg width="16" height="16" viewBox="0 0 16 16" fill="none" xmlns="http://www.w3.org/2000/svg">
<path d="M9.39815 3.69991C9.5831 3.79233 9.78702 3.84044 9.99378 3.84044C10.2005 3.84044 10.4045 3.79233 10.5894 3.69991L13.0272 2.48067C13.1289 2.42987 13.2418 2.40592 13.3553 2.41109C13.4689 2.41626 13.5792 2.45038 13.6758 2.5102C13.7724 2.57003 13.8521 2.65357 13.9073 2.75289C13.9625 2.8522 13.9914 2.96399 13.9913 3.07763V11.5816C13.9912 11.7053 13.9567 11.8266 13.8916 11.9318C13.8266 12.037 13.7335 12.122 13.6228 12.1773L10.5894 13.6943C10.4045 13.7867 10.2005 13.8349 9.99378 13.8349C9.78702 13.8349 9.5831 13.7867 9.39815 13.6943L6.59191 12.2912C6.40696 12.1988 6.20304 12.1507 5.99628 12.1507C5.78952 12.1507 5.5856 12.1988 5.40065 12.2912L2.96285 13.5104C2.86114 13.5613 2.74813 13.5852 2.63455 13.58C2.52098 13.5748 2.41063 13.5406 2.314 13.4807C2.21736 13.4208 2.13767 13.3372 2.08249 13.2378C2.02732 13.1384 1.9985 13.0265 1.99878 12.9128V4.40946C1.99885 4.28577 2.03335 4.16453 2.09842 4.05933C2.16349 3.95413 2.25657 3.86913 2.36722 3.81383L5.40065 2.29678C5.5856 2.20436 5.78952 2.15625 5.99628 2.15625C6.20304 2.15625 6.40696 2.20436 6.59191 2.29678L9.39815 3.69991Z" stroke="#364153" stroke-width="1.3325" stroke-linecap="round" stroke-linejoin="round"/>
<path d="M9.99365 3.83984V13.8336" stroke="#364153" stroke-width="1.3325" stroke-linecap="round" stroke-linejoin="round"/>
<path d="M5.99634 2.15625V12.15" stroke="#364153" stroke-width="1.3325" stroke-linecap="round" stroke-linejoin="round"/>
</svg>
